<svg xmlns="http://www.w3.org/2000/svg" version="1.1" xmlns:xlink="http://www.w3.org/1999/xlink" xmlns:svgjs="http://svgjs.dev/svgjs" width="2000" height="1652" viewBox="0 0 2000 1652"><g transform="matrix(1,0,0,1,-0.04808041063802193,0.6700609780996274)"><svg viewBox="0 0 299 247" data-background-color="#3a3d53" preserveAspectRatio="xMidYMid meet" height="1652" width="2000" xmlns="http://www.w3.org/2000/svg" xmlns:xlink="http://www.w3.org/1999/xlink"><g id="tight-bounds" transform="matrix(1,0,0,1,0.007188021390390986,-0.09997365579206985)"><svg viewBox="0 0 298.9856239572192 247.2" height="247.2" width="298.9856239572192"><g><svg viewBox="0 0 298.9856239572192 247.2" height="247.2" width="298.9856239572192"><g><svg viewBox="0 0 298.9856239572192 247.2" height="247.2" width="298.9856239572192"><g id="textblocktransform"><svg viewBox="0 0 298.9856239572192 247.2" height="247.2" width="298.9856239572192" id="textblock"><g><svg viewBox="0 0 298.9856239572192 247.2" height="247.2" width="298.9856239572192"><path d="M298.286 53.02C296.88 27.36 292.874 20.227 292.874 20.227 280.575-6.202 265.226-0.506 251.437 3.292 227.092 3.446 202.846 9.091 178.557 12.119 127.576 12.581 76.159 4.986 25.431 23.717 20.666 29.464-4.943 24.846 0.848 56.304 2.366 69.39 7.904 83.913 7.735 95.922 8.494 98.026 9.548 93.202 9.998 96.23 11.572 104.39 14.144 100.541 16.253 105.365 13.315 118.246 15.424 128.971 17.434 140.21 13.891 143.135 9.351 141.749 7.313 151.449 7.102 158.479 5.964 157.145 4.713 156.837 3.799 156.632 1.958 157.402 2.267 159.608 3.321 167.152-1.205 171.514 1.635 178.904-0.319 186.91 2.984 193.838 2.534 202.511 2.478 204.255 2.787 205.744 3.279 206.154 5.458 208.361 2.281 212.672 2.619 217.342 24.968 249.262 49.214 227.195 72.111 241.872 78.057 231.608 73.587 245.516 75.963 243.36 77.818 240.846 79.167 251.263 81.262 245.362 81.585 243.668 81.093 239.665 82.246 240.435 82.85 240.846 83.384 240.743 83.468 238.382 83.595 234.841 82.485 237.048 82.189 235.201 85.38 225.861 84.593 248.081 87.587 247.158 87.446 244.438 86.575 240.538 88.36 241.051 90.131 237.151 90.187 233.918 91.761 242.693 91.818 244.592 92.099 245.926 92.549 246.85 97.468 237.305 102.36 250.237 107.518 245.926 110.681 241.205 113.717 248.492 116.922 246.696 118.046 245.259 119.185 242.693 120.267 247.004 133.522 247.928 147.648 244.079 160.214 247.158 193.794 241.41 229.679 249.518 265.085 241.923 273.435 238.998 282.107 234.841 290.246 231.506 290.246 231.506 296.838 222.371 296.838 181.316S298.243 145.393 298.454 112.703C298.665 80.013 299.649 78.679 298.243 53.02Z" opacity="1" fill="#fffead" data-fill-palette-color="tertiary"></path><g transform="matrix(1,0,0,1,55.76831999999999,26.230666666666668)"><svg width="187.44898395721924" viewBox="3.5 -34.45 18 18.700000000000003" height="194.73866666666666" data-palette-color="#3a3d53"><path d="M20.65-21.95Q21.4-21.65 21.4-20.75L21.4-20.75Q21.4-20.15 20.98-19.65 20.55-19.15 20-19.15L20-19.15Q19.45-19.15 18.8-19.45L18.8-19.45 14.4-21.9 14.45-17.05Q14.45-16.45 13.95-16.1 13.45-15.75 12.7-15.75L12.7-15.75Q11.95-15.75 11.5-16.07 11.05-16.4 11.05-17.05L11.05-17.05Q11.05-19.75 11-21.9L11-21.9 6.85-19.7Q6.7-19.65 6.33-19.5 5.95-19.35 5.8-19.35L5.8-19.35Q5.25-19.35 4.78-19.85 4.3-20.35 4.3-21L4.3-21Q4.3-21.7 5-22.05L5-22.05 10.55-24.8 4.2-27.9Q3.5-28.25 3.5-29.05L3.5-29.05Q3.5-29.6 3.93-30.08 4.35-30.55 4.85-30.55L4.85-30.55Q5.45-30.55 5.95-30.2L5.95-30.2 10.95-27.6 10.9-32.95Q10.9-34.45 12.6-34.45L12.6-34.45Q14.3-34.45 14.3-32.95L14.3-32.95 14.35-27.55 18.65-29.95Q18.75-30 19.25-30.23 19.75-30.45 20.1-30.45L20.1-30.45Q20.65-30.45 21.08-29.95 21.5-29.45 21.5-28.9L21.5-28.9Q21.5-28.15 20.55-27.6L20.55-27.6 14.7-24.8 20.65-21.95Z" opacity="1" transform="matrix(1,0,0,1,0,0)" fill="#3a3d53" class="wordmark-text-0" data-fill-palette-color="quaternary" id="text-0"></path></svg></g></svg></g></svg></g></svg></g><g></g></svg></g><defs></defs></svg><rect width="298.9856239572192" height="247.2" fill="none" stroke="none" visibility="hidden"></rect></g></svg></g></svg>