<svg xmlns="http://www.w3.org/2000/svg" version="1.1" xmlns:xlink="http://www.w3.org/1999/xlink" xmlns:svgjs="http://svgjs.dev/svgjs" width="2000" height="1247" viewBox="0 0 2000 1247"><g transform="matrix(1,0,0,1,-1.2121212121212466,0.504858299595071)"><svg viewBox="0 0 396 247" data-background-color="#ffffff" preserveAspectRatio="xMidYMid meet" height="1247" width="2000" xmlns="http://www.w3.org/2000/svg" xmlns:xlink="http://www.w3.org/1999/xlink"><g id="tight-bounds" transform="matrix(1,0,0,1,0.2400000000000091,-0.09999999999999432)"><svg viewBox="0 0 395.52 247.2" height="247.2" width="395.52"><g><svg></svg></g><g><svg viewBox="0 0 395.52 247.2" height="247.2" width="395.52"><g transform="matrix(1,0,0,1,75.54432,74.10468472428597)"><svg viewBox="0 0 244.43135999999998 98.99063055142804" height="98.99063055142804" width="244.43135999999998"><g><svg viewBox="0 0 318.7466464167062 129.08708405886557" height="98.99063055142804" width="244.43135999999998"><g><rect width="3.6721593594129227" height="129.08708405886557" x="61.03014444102912" y="0" fill="#000000" opacity="1" stroke-width="0" stroke="transparent" fill-opacity="1" class="rect-qz-0" data-fill-palette-color="primary" rx="1%" id="qz-0" data-palette-color="#000000"></rect></g><g transform="matrix(1,0,0,1,74.31528641670623,0.3211121494001503)"><svg viewBox="0 0 244.43135999999998 128.44485976006527" height="128.44485976006527" width="244.43135999999998"><g id="textblocktransform"><svg viewBox="0 0 244.43135999999998 128.44485976006527" height="128.44485976006527" width="244.43135999999998" id="textblock"><g><svg viewBox="0 0 244.43135999999998 88.17028405690684" height="88.17028405690684" width="244.43135999999998"><g transform="matrix(1,0,0,1,0,0)"><svg width="244.43135999999998" viewBox="2.4999999999999964 -35.849999999999994 218 75.6" height="88.17028405690684" data-palette-color="#000000"><svg></svg><svg></svg><g class="wordmark-text-0" data-fill-palette-color="primary" id="text-0"><path d="M29.45-8.5l-0.35 8.8-23.1-30.3c-0.433-0.567-0.867-0.943-1.3-1.13-0.433-0.18-1.083-0.32-1.95-0.42v0c-0.1-0.367-0.167-0.773-0.2-1.22-0.033-0.453-0.05-0.847-0.05-1.18v0c0.333 0.033 0.743 0.057 1.23 0.07 0.48 0.02 0.98 0.037 1.5 0.05 0.513 0.02 0.987 0.03 1.42 0.03v0c0.667 0 1.333-0.017 2-0.05 0.667-0.033 1.233-0.067 1.7-0.1v0zM2.5 0.15v0c0-0.5 0.017-0.943 0.05-1.33 0.033-0.38 0.1-0.737 0.2-1.07v0c0.933-0.033 1.65-0.267 2.15-0.7 0.5-0.433 0.86-1.183 1.08-2.25 0.213-1.067 0.32-2.533 0.32-4.4v0-20.95l2.75 0.05v20.9c0 1.867 0.1 3.333 0.3 4.4 0.2 1.067 0.55 1.817 1.05 2.25 0.5 0.433 1.217 0.667 2.15 0.7v0c0.133 0.333 0.217 0.69 0.25 1.07 0.033 0.387 0.05 0.83 0.05 1.33v0c-0.5-0.033-1.057-0.057-1.67-0.07-0.62-0.02-1.23-0.037-1.83-0.05-0.6-0.02-1.15-0.03-1.65-0.03v0c-0.467 0-1.04 0.01-1.72 0.03-0.687 0.013-1.337 0.03-1.95 0.05-0.62 0.013-1.13 0.037-1.53 0.07zM29.1 0.3v0l-0.2-5.65v-19.05c0-1.867-0.1-3.3-0.3-4.3-0.2-1-0.557-1.717-1.07-2.15-0.52-0.433-1.247-0.667-2.18-0.7v0c-0.1-0.567-0.173-1.027-0.22-1.38-0.053-0.347-0.08-0.687-0.08-1.02v0c0.5 0.033 1.043 0.057 1.63 0.07 0.58 0.02 1.17 0.037 1.77 0.05 0.6 0.02 1.133 0.03 1.6 0.03v0c0.733 0 1.557-0.017 2.47-0.05 0.92-0.033 1.713-0.067 2.38-0.1v0c0 0.4-0.017 0.8-0.05 1.2-0.033 0.4-0.1 0.8-0.2 1.2v0c-0.767 0.033-1.367 0.257-1.8 0.67-0.433 0.42-0.74 1.137-0.92 2.15-0.187 1.02-0.28 2.463-0.28 4.33v0 24.4c-0.333 0.1-0.723 0.177-1.17 0.23-0.453 0.047-0.913 0.07-1.38 0.07zM54.3 0.45v0c-0.4-0.167-0.717-0.477-0.95-0.93-0.233-0.447-0.35-1.12-0.35-2.02v0c0-0.333 0.027-0.727 0.08-1.18 0.047-0.447 0.12-0.87 0.22-1.27v0h0.15c-0.133 0.633-0.39 1.267-0.77 1.9-0.387 0.633-0.863 1.2-1.43 1.7v0c-0.6 0.5-1.35 0.907-2.25 1.22-0.9 0.32-1.967 0.48-3.2 0.48v0c-2.133 0-3.773-0.473-4.92-1.42-1.153-0.953-1.73-2.28-1.73-3.98v0c0-1.3 0.31-2.41 0.93-3.33 0.613-0.913 1.413-1.68 2.4-2.3 0.98-0.613 2.053-1.103 3.22-1.47 1.167-0.367 2.327-0.66 3.48-0.88 1.147-0.213 2.187-0.387 3.12-0.52v0c0-1.267-0.023-2.267-0.07-3-0.053-0.733-0.153-1.323-0.3-1.77-0.153-0.453-0.38-0.847-0.68-1.18v0c-0.4-0.467-0.85-0.817-1.35-1.05-0.5-0.233-1.05-0.35-1.65-0.35v0c-1.067 0-1.9 0.323-2.5 0.97-0.6 0.653-1.033 1.42-1.3 2.3-0.267 0.887-0.433 1.713-0.5 2.48v0c-0.467 0-1-0.033-1.6-0.1-0.6-0.067-1.083-0.167-1.45-0.3v0c0.067-0.867 0.093-1.817 0.08-2.85-0.02-1.033-0.13-1.95-0.33-2.75v0c1.4-0.7 2.9-1.243 4.5-1.63 1.6-0.38 3.083-0.57 4.45-0.57v0c1.433 0 2.633 0.183 3.6 0.55 0.967 0.367 1.717 0.85 2.25 1.45v0c0.833 0.8 1.4 1.857 1.7 3.17 0.3 1.32 0.45 3.113 0.45 5.38v0 5.15c0 0.967 0.077 1.733 0.23 2.3 0.147 0.567 0.437 0.973 0.87 1.22 0.433 0.253 1.083 0.397 1.95 0.43v0c0.033 0.4 0.027 0.833-0.02 1.3-0.053 0.467-0.163 0.9-0.33 1.3v0c-0.933 0.033-1.95 0.183-3.05 0.45-1.1 0.267-2.083 0.633-2.95 1.1zM47.5-2.8v0c0.733 0 1.467-0.243 2.2-0.73 0.733-0.48 1.35-1.213 1.85-2.2 0.5-0.98 0.75-2.27 0.75-3.87v0-1.75c-0.867 0.133-1.75 0.3-2.65 0.5-0.9 0.2-1.723 0.483-2.47 0.85-0.753 0.367-1.353 0.85-1.8 1.45-0.453 0.6-0.68 1.4-0.68 2.4v0c0 1.167 0.283 2.017 0.85 2.55 0.567 0.533 1.217 0.8 1.95 0.8zM73.1 0.45v0c-2.067 0-3.607-0.533-4.62-1.6-1.02-1.067-1.53-2.817-1.53-5.25v0-12.9c-0.5-0.167-1.023-0.31-1.57-0.43-0.553-0.113-1.23-0.187-2.03-0.22v0c0-0.467 0.033-0.883 0.1-1.25 0.067-0.367 0.183-0.767 0.35-1.2v0h3.15v-6.45c0.8-0.167 1.593-0.45 2.38-0.85 0.78-0.4 1.437-0.833 1.97-1.3v0c0.367 0.133 0.617 0.35 0.75 0.65 0.133 0.3 0.2 1 0.2 2.1v0 5.85h6.4c0 0.4-0.033 0.817-0.1 1.25-0.067 0.433-0.183 0.85-0.35 1.25v0c-1.2 0-2.29 0.067-3.27 0.2-0.987 0.133-1.88 0.283-2.68 0.45v0 11.85c0 1.167 0.11 2.107 0.33 2.82 0.213 0.72 0.53 1.247 0.95 1.58 0.413 0.333 0.92 0.5 1.52 0.5v0c0.667 0 1.26-0.093 1.78-0.28 0.513-0.18 1.003-0.453 1.47-0.82v0c0.433 0.533 0.683 1.167 0.75 1.9v0c-0.567 0.6-1.417 1.107-2.55 1.52-1.133 0.42-2.267 0.63-3.4 0.63zM106.1-14.95v8.35c0 1.7 0.233 2.85 0.7 3.45 0.467 0.6 1.183 0.9 2.15 0.9v0c0.1 0.333 0.177 0.683 0.23 1.05 0.047 0.367 0.07 0.817 0.07 1.35v0c-0.733-0.067-1.6-0.107-2.6-0.12-1-0.02-2.033-0.03-3.1-0.03v0c-0.667 0-1.4 0.01-2.2 0.03-0.8 0.013-1.55 0.03-2.25 0.05-0.7 0.013-1.317 0.037-1.85 0.07v0c0-0.5 0.017-0.95 0.05-1.35 0.033-0.4 0.117-0.75 0.25-1.05v0c1.133 0 1.967-0.317 2.5-0.95 0.533-0.633 0.8-1.8 0.8-3.5v0-6.95c0-2.3-0.407-3.867-1.22-4.7-0.82-0.833-1.88-1.25-3.18-1.25v0c-0.867 0-1.717 0.283-2.55 0.85-0.833 0.567-1.523 1.45-2.07 2.65-0.553 1.2-0.83 2.783-0.83 4.75v0 4.75c0 1.667 0.243 2.807 0.73 3.42 0.48 0.62 1.337 0.93 2.57 0.93v0c0.1 0.333 0.177 0.69 0.23 1.07 0.047 0.387 0.07 0.83 0.07 1.33v0c-0.5-0.033-1.1-0.057-1.8-0.07-0.7-0.02-1.433-0.037-2.2-0.05-0.767-0.02-1.517-0.03-2.25-0.03v0c-0.667 0-1.4 0.01-2.2 0.03-0.8 0.013-1.557 0.03-2.27 0.05-0.72 0.013-1.33 0.037-1.83 0.07v0c0-0.5 0.017-0.96 0.05-1.38 0.033-0.413 0.1-0.753 0.2-1.02v0c1.3 0 2.2-0.31 2.7-0.93 0.5-0.613 0.75-1.753 0.75-3.42v0-9.2l5.25-5.2c0 0.4-0.023 0.85-0.07 1.35-0.053 0.5-0.163 1.033-0.33 1.6v0c0.133-0.233 0.267-0.483 0.4-0.75 0.133-0.267 0.317-0.55 0.55-0.85v0c0.6-0.767 1.517-1.533 2.75-2.3 1.233-0.767 2.7-1.15 4.4-1.15v0c1.333 0 2.56 0.257 3.68 0.77 1.113 0.52 2.013 1.37 2.7 2.55 0.68 1.187 1.02 2.797 1.02 4.83zM85.75-26.9v-1.55c0-0.8-0.083-1.46-0.25-1.98-0.167-0.513-0.517-0.903-1.05-1.17-0.533-0.267-1.35-0.4-2.45-0.4v0c0-0.4 0.033-0.783 0.1-1.15 0.067-0.367 0.183-0.7 0.35-1v0c0.7 0 1.55-0.083 2.55-0.25 1-0.167 1.943-0.383 2.83-0.65 0.88-0.267 1.537-0.533 1.97-0.8v0c0.333 0.133 0.617 0.367 0.85 0.7 0.233 0.333 0.35 0.833 0.35 1.5v0 6.75zM85.75-14.9v-13.8h5.25v7.7zM128.45 0.45v0c-0.4-0.167-0.717-0.477-0.95-0.93-0.233-0.447-0.35-1.12-0.35-2.02v0c0-0.333 0.027-0.727 0.08-1.18 0.047-0.447 0.12-0.87 0.22-1.27v0h0.15c-0.133 0.633-0.39 1.267-0.77 1.9-0.387 0.633-0.863 1.2-1.43 1.7v0c-0.6 0.5-1.35 0.907-2.25 1.22-0.9 0.32-1.967 0.48-3.2 0.48v0c-2.133 0-3.773-0.473-4.92-1.42-1.153-0.953-1.73-2.28-1.73-3.98v0c0-1.3 0.31-2.41 0.93-3.33 0.613-0.913 1.413-1.68 2.4-2.3 0.98-0.613 2.053-1.103 3.22-1.47 1.167-0.367 2.327-0.66 3.48-0.88 1.147-0.213 2.187-0.387 3.12-0.52v0c0-1.267-0.023-2.267-0.07-3-0.053-0.733-0.153-1.323-0.3-1.77-0.153-0.453-0.38-0.847-0.68-1.18v0c-0.4-0.467-0.85-0.817-1.35-1.05-0.5-0.233-1.05-0.35-1.65-0.35v0c-1.067 0-1.9 0.323-2.5 0.97-0.6 0.653-1.033 1.42-1.3 2.3-0.267 0.887-0.433 1.713-0.5 2.48v0c-0.467 0-1-0.033-1.6-0.1-0.6-0.067-1.083-0.167-1.45-0.3v0c0.067-0.867 0.093-1.817 0.08-2.85-0.02-1.033-0.13-1.95-0.33-2.75v0c1.4-0.7 2.9-1.243 4.5-1.63 1.6-0.38 3.083-0.57 4.45-0.57v0c1.433 0 2.633 0.183 3.6 0.55 0.967 0.367 1.717 0.85 2.25 1.45v0c0.833 0.8 1.4 1.857 1.7 3.17 0.3 1.32 0.45 3.113 0.45 5.38v0 5.15c0 0.967 0.077 1.733 0.23 2.3 0.147 0.567 0.437 0.973 0.87 1.22 0.433 0.253 1.083 0.397 1.95 0.43v0c0.033 0.4 0.027 0.833-0.02 1.3-0.053 0.467-0.163 0.9-0.33 1.3v0c-0.933 0.033-1.95 0.183-3.05 0.45-1.1 0.267-2.083 0.633-2.95 1.1zM121.65-2.8v0c0.733 0 1.467-0.243 2.2-0.73 0.733-0.48 1.35-1.213 1.85-2.2 0.5-0.98 0.75-2.27 0.75-3.87v0-1.75c-0.867 0.133-1.75 0.3-2.65 0.5-0.9 0.2-1.723 0.483-2.47 0.85-0.753 0.367-1.353 0.85-1.8 1.45-0.453 0.6-0.68 1.4-0.68 2.4v0c0 1.167 0.283 2.017 0.85 2.55 0.567 0.533 1.217 0.8 1.95 0.8zM147.4-21l-5.3 10.4v-5.2c0-0.867-0.073-1.56-0.22-2.08-0.153-0.513-0.497-0.903-1.03-1.17-0.533-0.267-1.35-0.417-2.45-0.45v0c0-0.4 0.033-0.783 0.1-1.15 0.067-0.367 0.183-0.7 0.35-1v0c1.267-0.067 2.617-0.267 4.05-0.6 1.433-0.333 2.533-0.7 3.3-1.1v0c0.333 0.133 0.617 0.367 0.85 0.7 0.233 0.333 0.35 0.883 0.35 1.65zM162.5-14.95v8.35c0 1.7 0.227 2.85 0.68 3.45 0.447 0.6 1.17 0.9 2.17 0.9v0c0.1 0.333 0.167 0.683 0.2 1.05 0.033 0.367 0.05 0.817 0.05 1.35v0c-0.733-0.067-1.6-0.107-2.6-0.12-1-0.02-2.017-0.03-3.05-0.03v0c-0.7 0-1.44 0.01-2.22 0.03-0.787 0.013-1.53 0.03-2.23 0.05-0.7 0.013-1.317 0.037-1.85 0.07v0c0-0.5 0.017-0.95 0.05-1.35 0.033-0.4 0.117-0.75 0.25-1.05v0c1.1 0 1.917-0.317 2.45-0.95 0.533-0.633 0.8-1.8 0.8-3.5v0-6.95c0-2.3-0.4-3.867-1.2-4.7-0.8-0.833-1.867-1.25-3.2-1.25v0c-0.833 0-1.667 0.283-2.5 0.85-0.833 0.567-1.523 1.45-2.07 2.65-0.553 1.2-0.83 2.783-0.83 4.75v0 4.75c0 1.667 0.243 2.807 0.73 3.42 0.48 0.62 1.32 0.93 2.52 0.93v0c0.133 0.333 0.217 0.69 0.25 1.07 0.033 0.387 0.05 0.83 0.05 1.33v0c-0.467-0.033-1.05-0.057-1.75-0.07-0.7-0.02-1.433-0.037-2.2-0.05-0.767-0.02-1.517-0.03-2.25-0.03v0c-0.7 0-1.44 0.01-2.22 0.03-0.787 0.013-1.547 0.03-2.28 0.05-0.733 0.013-1.35 0.037-1.85 0.07v0c0-0.5 0.027-0.96 0.08-1.38 0.047-0.413 0.12-0.753 0.22-1.02v0c1.3 0 2.193-0.31 2.68-0.93 0.48-0.613 0.72-1.753 0.72-3.42v0-9.2l5.3-5.2c0 0.4-0.023 0.85-0.07 1.35-0.053 0.5-0.163 1.033-0.33 1.6v0c0.133-0.233 0.267-0.483 0.4-0.75 0.133-0.267 0.317-0.55 0.55-0.85v0c0.6-0.767 1.517-1.533 2.75-2.3 1.233-0.767 2.7-1.15 4.4-1.15v0c1.3 0 2.517 0.257 3.65 0.77 1.133 0.52 2.043 1.37 2.73 2.55 0.68 1.187 1.02 2.797 1.02 4.83z" fill="#000000" fill-rule="nonzero" stroke="none" stroke-width="1" stroke-linecap="butt" stroke-linejoin="miter" stroke-miterlimit="10" stroke-dasharray="" stroke-dashoffset="0" font-family="none" font-weight="none" font-size="none" text-anchor="none" style="mix-blend-mode: normal" data-fill-palette-color="primary" opacity="1"></path><path transform="translate(0,39.3)" d="M2.65-33.95v0c0.667 0.033 1.483 0.067 2.45 0.1 0.967 0.033 1.883 0.05 2.75 0.05v0c0.833 0 1.7-0.01 2.6-0.03 0.9-0.013 1.8-0.03 2.7-0.05 0.9-0.013 1.75-0.02 2.55-0.02v0c2.2 0 4.133 0.217 5.8 0.65 1.667 0.433 2.977 1.183 3.93 2.25 0.947 1.067 1.42 2.55 1.42 4.45v0c0 2.1-0.65 3.9-1.95 5.4-1.3 1.5-3.1 2.433-5.4 2.8v0c1.867 0.1 3.533 0.443 5 1.03 1.467 0.58 2.633 1.47 3.5 2.67 0.867 1.2 1.3 2.8 1.3 4.8v0c0 1.833-0.423 3.5-1.27 5-0.853 1.5-2.203 2.683-4.05 3.55-1.853 0.867-4.28 1.3-7.28 1.3v0c-1 0-2.157 0-3.47 0-1.32 0-2.657 0.01-4.01 0.03-1.347 0.013-2.603 0.03-3.77 0.05-1.167 0.013-2.117 0.037-2.85 0.07v0c0-0.5 0.017-0.96 0.05-1.38 0.033-0.413 0.1-0.753 0.2-1.02v0c0.9-0.067 1.6-0.243 2.1-0.53 0.5-0.28 0.86-0.77 1.08-1.47 0.213-0.7 0.32-1.717 0.32-3.05v0-19.7c0-1.2-0.1-2.11-0.3-2.73-0.2-0.613-0.55-1.053-1.05-1.32-0.5-0.267-1.2-0.433-2.1-0.5v0c-0.1-0.3-0.167-0.667-0.2-1.1-0.033-0.433-0.05-0.867-0.05-1.3zM11.15-31l0.7-1.05v24.85c0 1.367 0.133 2.4 0.4 3.1 0.267 0.7 0.733 1.157 1.4 1.37 0.667 0.22 1.567 0.33 2.7 0.33v0c2.267 0 3.95-0.6 5.05-1.8 1.1-1.2 1.65-2.85 1.65-4.95v0c0-1.5-0.283-2.733-0.85-3.7-0.567-0.967-1.34-1.7-2.32-2.2-0.987-0.5-2.07-0.85-3.25-1.05-1.187-0.2-2.38-0.3-3.58-0.3v0h-2v-2.4h2.4c2 0 3.54-0.293 4.62-0.88 1.087-0.58 1.847-1.347 2.28-2.3 0.433-0.947 0.65-1.97 0.65-3.07v0c0-1.633-0.367-2.917-1.1-3.85-0.733-0.933-1.64-1.593-2.72-1.98-1.087-0.38-2.163-0.57-3.23-0.57v0c-0.467 0-0.907 0.033-1.32 0.1-0.42 0.067-0.913 0.183-1.48 0.35zM45.4 0.45v0c-2.367 0-4.423-0.493-6.17-1.48-1.753-0.98-3.103-2.353-4.05-4.12-0.953-1.767-1.43-3.85-1.43-6.25v0c0-2.333 0.507-4.4 1.52-6.2 1.02-1.8 2.413-3.21 4.18-4.23 1.767-1.013 3.767-1.52 6-1.52v0c2.5 0 4.617 0.5 6.35 1.5 1.733 1 3.05 2.383 3.95 4.15 0.9 1.767 1.35 3.833 1.35 6.2v0c0 2.3-0.483 4.357-1.45 6.17-0.967 1.82-2.323 3.24-4.07 4.26-1.753 1.013-3.813 1.52-6.18 1.52zM45.9-2.2v0c1.867 0 3.25-0.793 4.15-2.38 0.9-1.58 1.35-3.637 1.35-6.17v0c0-2.067-0.29-3.86-0.87-5.38-0.587-1.513-1.373-2.663-2.36-3.45-0.98-0.78-2.053-1.17-3.22-1.17v0c-1.833 0-3.2 0.767-4.1 2.3-0.9 1.533-1.35 3.5-1.35 5.9v0c0 2.133 0.26 3.983 0.78 5.55 0.513 1.567 1.253 2.757 2.22 3.57 0.967 0.82 2.1 1.23 3.4 1.23zM69.85-11.35v3.6c0 1.433 0.15 2.533 0.45 3.3 0.3 0.767 0.793 1.3 1.48 1.6 0.68 0.3 1.57 0.5 2.67 0.6v0c0.1 0.3 0.177 0.65 0.23 1.05 0.047 0.4 0.07 0.85 0.07 1.35v0c-0.533-0.033-1.167-0.057-1.9-0.07-0.733-0.02-1.517-0.037-2.35-0.05-0.833-0.02-1.667-0.03-2.5-0.03v0c-1.267 0-2.583 0.01-3.95 0.03-1.367 0.013-2.433 0.053-3.2 0.12v0c0-0.533 0.017-1 0.05-1.4 0.033-0.4 0.117-0.733 0.25-1v0c0.9-0.067 1.593-0.233 2.08-0.5 0.48-0.267 0.82-0.717 1.02-1.35 0.2-0.633 0.3-1.533 0.3-2.7v0-4.55zM68.95-15.3l0.9 0.65v4.05h-5.3v-5.55l5.3-4.85c0 1.033-0.1 2-0.3 2.9-0.2 0.9-0.4 1.833-0.6 2.8zM69.85-11.9l-1.1-3.1c0.333-0.9 0.61-1.673 0.83-2.32 0.213-0.653 0.437-1.18 0.67-1.58v0c0.733-1.167 1.61-2.133 2.63-2.9 1.013-0.767 2.187-1.15 3.52-1.15v0c1.267 0 2.417 0.4 3.45 1.2v0c-0.067 0.567-0.133 1.223-0.2 1.97-0.067 0.753-0.107 1.503-0.12 2.25-0.02 0.753-0.03 1.447-0.03 2.08v0c-0.367 0.133-0.85 0.25-1.45 0.35-0.6 0.1-1.2 0.15-1.8 0.15v0c-0.067-1.5-0.307-2.51-0.72-3.03-0.42-0.513-0.963-0.77-1.63-0.77v0c-0.533 0-1.123 0.317-1.77 0.95-0.653 0.633-1.197 1.467-1.63 2.5-0.433 1.033-0.65 2.167-0.65 3.4zM69.85-21l-5.3 10.4v-5.2c0-0.867-0.073-1.56-0.22-2.08-0.153-0.513-0.497-0.903-1.03-1.17-0.533-0.267-1.35-0.417-2.45-0.45v0c0-0.4 0.033-0.783 0.1-1.15 0.067-0.367 0.183-0.7 0.35-1v0c1.267-0.067 2.617-0.267 4.05-0.6 1.433-0.333 2.533-0.7 3.3-1.1v0c0.333 0.133 0.617 0.367 0.85 0.7 0.233 0.333 0.35 0.883 0.35 1.65zM91.65-21l-5.3 10.4v-5.2c0-0.867-0.073-1.56-0.22-2.08-0.153-0.513-0.497-0.903-1.03-1.17-0.533-0.267-1.35-0.417-2.45-0.45v0c0-0.4 0.033-0.783 0.1-1.15 0.067-0.367 0.183-0.7 0.35-1v0c1.267-0.067 2.617-0.267 4.05-0.6 1.433-0.333 2.533-0.7 3.3-1.1v0c0.333 0.133 0.617 0.367 0.85 0.7 0.233 0.333 0.35 0.883 0.35 1.65zM106.75-14.95v8.35c0 1.7 0.227 2.85 0.68 3.45 0.447 0.6 1.17 0.9 2.17 0.9v0c0.1 0.333 0.167 0.683 0.2 1.05 0.033 0.367 0.05 0.817 0.05 1.35v0c-0.733-0.067-1.6-0.107-2.6-0.12-1-0.02-2.017-0.03-3.05-0.03v0c-0.7 0-1.44 0.01-2.22 0.03-0.787 0.013-1.53 0.03-2.23 0.05-0.7 0.013-1.317 0.037-1.85 0.07v0c0-0.5 0.017-0.95 0.05-1.35 0.033-0.4 0.117-0.75 0.25-1.05v0c1.1 0 1.917-0.317 2.45-0.95 0.533-0.633 0.8-1.8 0.8-3.5v0-6.95c0-2.3-0.4-3.867-1.2-4.7-0.8-0.833-1.867-1.25-3.2-1.25v0c-0.833 0-1.667 0.283-2.5 0.85-0.833 0.567-1.523 1.45-2.07 2.65-0.553 1.2-0.83 2.783-0.83 4.75v0 4.75c0 1.667 0.243 2.807 0.73 3.42 0.48 0.62 1.32 0.93 2.52 0.93v0c0.133 0.333 0.217 0.69 0.25 1.07 0.033 0.387 0.05 0.83 0.05 1.33v0c-0.467-0.033-1.05-0.057-1.75-0.07-0.7-0.02-1.433-0.037-2.2-0.05-0.767-0.02-1.517-0.03-2.25-0.03v0c-0.7 0-1.44 0.01-2.22 0.03-0.787 0.013-1.547 0.03-2.28 0.05-0.733 0.013-1.35 0.037-1.85 0.07v0c0-0.5 0.027-0.96 0.08-1.38 0.047-0.413 0.12-0.753 0.22-1.02v0c1.3 0 2.193-0.31 2.68-0.93 0.48-0.613 0.72-1.753 0.72-3.42v0-9.2l5.3-5.2c0 0.4-0.023 0.85-0.07 1.35-0.053 0.5-0.163 1.033-0.33 1.6v0c0.133-0.233 0.267-0.483 0.4-0.75 0.133-0.267 0.317-0.55 0.55-0.85v0c0.6-0.767 1.517-1.533 2.75-2.3 1.233-0.767 2.7-1.15 4.4-1.15v0c1.3 0 2.517 0.257 3.65 0.77 1.133 0.52 2.043 1.37 2.73 2.55 0.68 1.187 1.02 2.797 1.02 4.83zM129.9-21.65v0c-0.033 0.833-0.05 1.7-0.05 2.6 0 0.9 0.067 1.783 0.2 2.65v0c-0.367 0.2-0.81 0.357-1.33 0.47-0.513 0.12-1.037 0.18-1.57 0.18v0c-0.067-0.9-0.323-1.75-0.77-2.55-0.453-0.8-1.063-1.45-1.83-1.95-0.767-0.5-1.683-0.75-2.75-0.75v0c-0.967 0-1.733 0.233-2.3 0.7-0.567 0.467-0.85 1.083-0.85 1.85v0c0 0.533 0.117 1.007 0.35 1.42 0.233 0.42 0.767 0.87 1.6 1.35 0.833 0.487 2.117 1.08 3.85 1.78v0c1.833 0.667 3.267 1.34 4.3 2.02 1.033 0.687 1.777 1.437 2.23 2.25 0.447 0.82 0.67 1.83 0.67 3.03v0c0 1.4-0.407 2.633-1.22 3.7-0.82 1.067-1.953 1.89-3.4 2.47-1.453 0.587-3.097 0.88-4.93 0.88v0c-2.033 0-3.657-0.16-4.87-0.48-1.22-0.313-2.43-0.753-3.63-1.32v0c0.1-0.567 0.16-1.233 0.18-2 0.013-0.767 0.02-1.527 0.02-2.28 0-0.747-0.033-1.387-0.1-1.92v0c0.3-0.233 0.733-0.4 1.3-0.5 0.567-0.1 1.117-0.15 1.65-0.15v0c0.267 2.033 0.893 3.55 1.88 4.55 0.98 1 2.287 1.5 3.92 1.5v0c1.233 0 2.21-0.277 2.93-0.83 0.713-0.547 1.07-1.27 1.07-2.17v0c0-0.567-0.14-1.067-0.42-1.5-0.287-0.433-0.797-0.86-1.53-1.28-0.733-0.413-1.833-0.903-3.3-1.47v0c-1.733-0.7-3.14-1.367-4.22-2-1.087-0.633-1.88-1.393-2.38-2.28-0.5-0.88-0.75-2.003-0.75-3.37v0c0-1.067 0.267-2 0.8-2.8 0.533-0.8 1.227-1.46 2.08-1.98 0.847-0.513 1.78-0.897 2.8-1.15 1.013-0.247 1.987-0.37 2.92-0.37v0c1.6 0 2.983 0.14 4.15 0.42 1.167 0.287 2.267 0.713 3.3 1.28zM144.2 0.45v0c-2.067 0-3.607-0.533-4.62-1.6-1.02-1.067-1.53-2.817-1.53-5.25v0-12.9c-0.5-0.167-1.023-0.31-1.57-0.43-0.553-0.113-1.23-0.187-2.03-0.22v0c0-0.467 0.033-0.883 0.1-1.25 0.067-0.367 0.183-0.767 0.35-1.2v0h3.15v-6.45c0.8-0.167 1.593-0.45 2.38-0.85 0.78-0.4 1.437-0.833 1.97-1.3v0c0.367 0.133 0.617 0.35 0.75 0.65 0.133 0.3 0.2 1 0.2 2.1v0 5.85h6.4c0 0.4-0.033 0.817-0.1 1.25-0.067 0.433-0.183 0.85-0.35 1.25v0c-1.2 0-2.29 0.067-3.27 0.2-0.987 0.133-1.88 0.283-2.68 0.45v0 11.85c0 1.167 0.11 2.107 0.33 2.82 0.213 0.72 0.53 1.247 0.95 1.58 0.413 0.333 0.92 0.5 1.52 0.5v0c0.667 0 1.26-0.093 1.78-0.28 0.513-0.18 1.003-0.453 1.47-0.82v0c0.433 0.533 0.683 1.167 0.75 1.9v0c-0.567 0.6-1.417 1.107-2.55 1.52-1.133 0.42-2.267 0.63-3.4 0.63zM164.4 0.45v0c-2.5 0-4.557-0.533-6.17-1.6-1.62-1.067-2.837-2.5-3.65-4.3-0.82-1.8-1.23-3.783-1.23-5.95v0c0-2.2 0.433-4.2 1.3-6 0.867-1.8 2.11-3.243 3.73-4.33 1.613-1.08 3.52-1.62 5.72-1.62v0c2.233 0 4.033 0.467 5.4 1.4 1.367 0.933 2.393 2.183 3.08 3.75 0.68 1.567 1.07 3.333 1.17 5.3v0c-0.133 0.767-0.417 1.4-0.85 1.9v0c-0.667 0-1.573 0-2.72 0-1.153 0-2.437 0.007-3.85 0.02-1.42 0.02-2.87 0.053-4.35 0.1-1.487 0.053-2.88 0.113-4.18 0.18v0-2.75h10.3c0-2.2-0.373-3.967-1.12-5.3-0.753-1.333-1.83-2-3.23-2v0c-0.8 0-1.567 0.25-2.3 0.75-0.733 0.5-1.333 1.34-1.8 2.52-0.467 1.187-0.7 2.83-0.7 4.93v0c0 1.667 0.217 3.257 0.65 4.77 0.433 1.52 1.167 2.753 2.2 3.7 1.033 0.953 2.5 1.43 4.4 1.43v0c1.1 0 2.193-0.233 3.28-0.7 1.08-0.467 2.037-1.133 2.87-2v0c0.267 0.133 0.527 0.383 0.78 0.75 0.247 0.367 0.387 0.717 0.42 1.05v0c-1.167 1.433-2.507 2.457-4.02 3.07-1.52 0.62-3.23 0.93-5.13 0.93zM177.5 0.15v0c0-0.4 0.027-0.817 0.08-1.25 0.047-0.433 0.12-0.817 0.22-1.15v0c1.333-0.033 2.233-0.35 2.7-0.95 0.467-0.6 0.7-1.733 0.7-3.4v0-9.35c0-0.8-0.073-1.46-0.22-1.98-0.153-0.513-0.497-0.903-1.03-1.17-0.533-0.267-1.367-0.4-2.5-0.4v0c0-0.4 0.043-0.783 0.13-1.15 0.08-0.367 0.203-0.7 0.37-1v0c0.667 0 1.5-0.083 2.5-0.25 1-0.167 1.95-0.383 2.85-0.65 0.9-0.267 1.567-0.533 2-0.8v0c0.333 0.133 0.617 0.367 0.85 0.7 0.233 0.333 0.35 0.833 0.35 1.5v0 14.55c0 1.667 0.227 2.8 0.68 3.4 0.447 0.6 1.22 0.917 2.32 0.95v0c0.1 0.333 0.167 0.733 0.2 1.2 0.033 0.467 0.05 0.867 0.05 1.2v0c-0.533-0.033-1.133-0.057-1.8-0.07-0.667-0.02-1.367-0.037-2.1-0.05-0.733-0.02-1.45-0.03-2.15-0.03v0c-0.733 0-1.473 0.01-2.22 0.03-0.753 0.013-1.47 0.03-2.15 0.05-0.687 0.013-1.297 0.037-1.83 0.07zM183.4-28.5v0c-0.967 0-1.757-0.293-2.37-0.88-0.62-0.58-0.93-1.303-0.93-2.17v0c0-1 0.333-1.8 1-2.4 0.667-0.6 1.45-0.9 2.35-0.9v0c1.033 0 1.85 0.3 2.45 0.9 0.6 0.6 0.9 1.383 0.9 2.35v0c0 0.833-0.323 1.557-0.97 2.17-0.653 0.62-1.463 0.93-2.43 0.93zM202.3-21l-5.3 10.4v-5.2c0-0.867-0.073-1.56-0.22-2.08-0.153-0.513-0.497-0.903-1.03-1.17-0.533-0.267-1.35-0.417-2.45-0.45v0c0-0.4 0.033-0.783 0.1-1.15 0.067-0.367 0.183-0.7 0.35-1v0c1.267-0.067 2.617-0.267 4.05-0.6 1.433-0.333 2.533-0.7 3.3-1.1v0c0.333 0.133 0.617 0.367 0.85 0.7 0.233 0.333 0.35 0.883 0.35 1.65zM217.4-14.95v8.35c0 1.7 0.227 2.85 0.68 3.45 0.447 0.6 1.17 0.9 2.17 0.9v0c0.1 0.333 0.167 0.683 0.2 1.05 0.033 0.367 0.05 0.817 0.05 1.35v0c-0.733-0.067-1.6-0.107-2.6-0.12-1-0.02-2.017-0.03-3.05-0.03v0c-0.7 0-1.44 0.01-2.22 0.03-0.787 0.013-1.53 0.03-2.23 0.05-0.7 0.013-1.317 0.037-1.85 0.07v0c0-0.5 0.017-0.95 0.05-1.35 0.033-0.4 0.117-0.75 0.25-1.05v0c1.1 0 1.917-0.317 2.45-0.95 0.533-0.633 0.8-1.8 0.8-3.5v0-6.95c0-2.3-0.4-3.867-1.2-4.7-0.8-0.833-1.867-1.25-3.2-1.25v0c-0.833 0-1.667 0.283-2.5 0.85-0.833 0.567-1.523 1.45-2.07 2.65-0.553 1.2-0.83 2.783-0.83 4.75v0 4.75c0 1.667 0.243 2.807 0.73 3.42 0.48 0.62 1.32 0.93 2.52 0.93v0c0.133 0.333 0.217 0.69 0.25 1.07 0.033 0.387 0.05 0.83 0.05 1.33v0c-0.467-0.033-1.05-0.057-1.75-0.07-0.7-0.02-1.433-0.037-2.2-0.05-0.767-0.02-1.517-0.03-2.25-0.03v0c-0.7 0-1.44 0.01-2.22 0.03-0.787 0.013-1.547 0.03-2.28 0.05-0.733 0.013-1.35 0.037-1.85 0.07v0c0-0.5 0.027-0.96 0.08-1.38 0.047-0.413 0.12-0.753 0.22-1.02v0c1.3 0 2.193-0.31 2.68-0.93 0.48-0.613 0.72-1.753 0.72-3.42v0-9.2l5.3-5.2c0 0.4-0.023 0.85-0.07 1.35-0.053 0.5-0.163 1.033-0.33 1.6v0c0.133-0.233 0.267-0.483 0.4-0.75 0.133-0.267 0.317-0.55 0.55-0.85v0c0.6-0.767 1.517-1.533 2.75-2.3 1.233-0.767 2.7-1.15 4.4-1.15v0c1.3 0 2.517 0.257 3.65 0.77 1.133 0.52 2.043 1.37 2.73 2.55 0.68 1.187 1.02 2.797 1.02 4.83z" fill="#000000" fill-rule="nonzero" stroke="none" stroke-width="1" stroke-linecap="butt" stroke-linejoin="miter" stroke-miterlimit="10" stroke-dasharray="" stroke-dashoffset="0" font-family="none" font-weight="none" font-size="none" text-anchor="none" style="mix-blend-mode: normal" data-fill-palette-color="primary" opacity="1"></path></g></svg></g></svg></g><g transform="matrix(1,0,0,1,0,97.78326667317103)"><svg viewBox="0 0 215.95510655999996 30.661593086894243" height="30.661593086894243" width="215.95510655999996"><g transform="matrix(1,0,0,1,0,0)"><svg width="215.95510655999996" viewBox="2.65 -40 358.81 50.95" height="30.661593086894243" data-palette-color="#c64e33"><path d="M9.75 0L2.65 0 2.65-34.6 19.85-34.6 19.1-29.45 9.75-29.45 9.75-19.35 17.9-19.35 17.9-14.2 9.75-14.2 9.75 0ZM41.4-26.5L41.4 0 35.45 0 35.15-3.2Q32.7 0.8 28.8 0.8L28.8 0.8Q25.9 0.8 24.22-1.28 22.55-3.35 22.55-6.7L22.55-6.7 22.55-26.5 29.35-26.5 29.35-7.05Q29.35-4.3 31.2-4.3L31.2-4.3Q33.1-4.3 34.6-7.5L34.6-7.5 34.6-26.5 41.4-26.5ZM52.55 0.8Q49.65 0.8 47.97-0.95 46.3-2.7 46.3-5.7L46.3-5.7 46.3-37.05 53.1-37.8 53.1-6Q53.1-4.65 54.25-4.65L54.25-4.65Q54.75-4.65 55.25-4.85L55.25-4.85 56.55-0.15Q54.75 0.8 52.55 0.8L52.55 0.8ZM65.14 0.8Q62.24 0.8 60.57-0.95 58.89-2.7 58.89-5.7L58.89-5.7 58.89-37.05 65.69-37.8 65.69-6Q65.69-4.65 66.84-4.65L66.84-4.65Q67.34-4.65 67.84-4.85L67.84-4.85 69.14-0.15Q67.34 0.8 65.14 0.8L65.14 0.8ZM90.69-35.4Q93.79-35.4 96.19-34.3 98.59-33.2 100.54-31.05L100.54-31.05 97.34-27.35Q94.44-30.1 91.34-30.1L91.34-30.1Q89.54-30.1 88.49-29.03 87.44-27.95 87.44-26.15L87.44-26.15Q87.44-24.4 88.59-23.25 89.74-22.1 92.94-20.8L92.94-20.8Q95.84-19.6 97.61-18.25 99.39-16.9 100.36-14.9 101.34-12.9 101.34-9.95L101.34-9.95Q101.34-6.9 99.94-4.45 98.54-2 95.94-0.6 93.34 0.8 89.89 0.8L89.89 0.8Q86.34 0.8 83.71-0.48 81.09-1.75 78.99-4L78.99-4 82.44-7.8Q84.19-6.2 85.86-5.38 87.54-4.55 89.44-4.55L89.44-4.55Q91.64-4.55 92.81-5.88 93.99-7.2 93.99-9.45L93.99-9.45Q93.99-11.5 92.89-12.78 91.79-14.05 88.89-15.25L88.89-15.25Q84.19-17.2 82.19-19.6 80.19-22 80.19-25.65L80.19-25.65Q80.19-28.5 81.54-30.7 82.89-32.9 85.29-34.15 87.69-35.4 90.69-35.4L90.69-35.4ZM116.49-5.4L118.79-1.2Q117.54-0.2 115.96 0.3 114.39 0.8 112.79 0.8L112.79 0.8Q109.14 0.8 107.29-1.28 105.44-3.35 105.44-6.9L105.44-6.9 105.44-21.65 102.49-21.65 102.49-26.5 105.44-26.5 105.44-32.3 112.24-33.15 112.24-26.5 117.19-26.5 116.54-21.65 112.24-21.65 112.24-6.95Q112.24-4.65 114.14-4.65L114.14-4.65Q114.79-4.65 115.29-4.83 115.79-5 116.49-5.4L116.49-5.4ZM138.48-6.7Q138.48-5.4 138.81-4.8 139.13-4.2 139.93-3.8L139.93-3.8 138.53 0.7Q136.43 0.45 135.13-0.38 133.83-1.2 133.18-2.95L133.18-2.95Q130.88 0.8 126.68 0.8L126.68 0.8Q123.38 0.8 121.43-1.45 119.48-3.7 119.48-7.4L119.48-7.4Q119.48-11.75 122.16-14.03 124.83-16.3 129.98-16.3L129.98-16.3 131.83-16.3 131.83-17.9Q131.83-20.35 131.03-21.33 130.23-22.3 128.28-22.3L128.28-22.3Q126.03-22.3 122.53-21L122.53-21 120.98-25.35Q123.03-26.3 125.28-26.8 127.53-27.3 129.53-27.3L129.53-27.3Q138.48-27.3 138.48-18.25L138.48-18.25 138.48-6.7ZM128.63-4.1Q130.73-4.1 131.83-7L131.83-7 131.83-12.35 130.63-12.35Q128.33-12.35 127.26-11.28 126.18-10.2 126.18-7.95L126.18-7.95Q126.18-6.05 126.83-5.08 127.48-4.1 128.63-4.1L128.63-4.1ZM153.63-27.3Q157.88-27.3 161.03-24.15L161.03-24.15 158.18-20.35Q156.03-22.05 154.08-22.05L154.08-22.05Q151.93-22.05 150.86-20.03 149.78-18 149.78-13.1L149.78-13.1Q149.78-8.35 150.88-6.48 151.98-4.6 154.08-4.6L154.08-4.6Q155.13-4.6 156.03-4.98 156.93-5.35 158.03-6.2L158.03-6.2 161.03-2.3Q157.83 0.8 153.68 0.8L153.68 0.8Q148.43 0.8 145.53-2.7 142.63-6.2 142.63-13.05L142.63-13.05Q142.63-17.45 143.98-20.68 145.33-23.9 147.81-25.6 150.28-27.3 153.63-27.3L153.63-27.3ZM163.63-37.05L170.43-37.8 170.43 0 163.63 0 163.63-37.05ZM177.48-26.5L184.03-26.5 177.33-14.8 184.53 0 177.33 0 170.63-14.5 177.48-26.5ZM196.47-34.6L214.22-34.6 213.47-29.45 203.57-29.45 203.57-20.15 212.22-20.15 212.22-15.05 203.57-15.05 203.57-5.2 214.12-5.2 214.12 0 196.47 0 196.47-34.6ZM230.97-27.3Q233.82-27.3 235.47-25.25 237.12-23.2 237.12-19.75L237.12-19.75 237.12 0 230.32 0 230.32-19Q230.32-20.65 229.87-21.35 229.42-22.05 228.52-22.05L228.52-22.05Q226.72-22.05 224.82-18.45L224.82-18.45 224.82 0 218.02 0 218.02-26.5 223.97-26.5 224.47-23.15Q225.77-25.2 227.32-26.25 228.87-27.3 230.97-27.3L230.97-27.3ZM260.47-30.15L262.17-25.1Q260.22-24.1 255.97-24.1L255.97-24.1Q258.12-23.05 259.14-21.43 260.17-19.8 260.17-17.3L260.17-17.3Q260.17-13.3 257.67-10.85 255.17-8.4 250.82-8.4L250.82-8.4Q249.67-8.4 248.37-8.75L248.37-8.75Q247.52-8.15 247.52-6.9L247.52-6.9Q247.52-5.95 248.04-5.48 248.57-5 250.07-5L250.07-5 252.77-5Q256.92-5 259.32-2.93 261.72-0.85 261.72 2.45L261.72 2.45Q261.72 6.3 258.72 8.63 255.72 10.95 250.22 10.95L250.22 10.95Q244.27 10.95 241.94 8.83 239.62 6.7 239.62 2.6L239.62 2.6 245.72 2.6Q245.72 4.6 246.64 5.48 247.57 6.35 250.27 6.35L250.27 6.35Q252.77 6.35 253.84 5.45 254.92 4.55 254.92 2.9L254.92 2.9Q254.92 1.3 254.04 0.55 253.17-0.2 251.32-0.2L251.32-0.2 249.32-0.2Q245.47-0.2 243.69-1.6 241.92-3 241.92-5.35L241.92-5.35Q241.92-8 244.67-10.15L244.67-10.15Q242.57-11.45 241.62-13.25 240.67-15.05 240.67-17.7L240.67-17.7Q240.67-22.1 243.32-24.65 245.97-27.2 250.52-27.2L250.52-27.2Q253.77-27.2 255.87-27.95 257.97-28.7 260.47-30.15L260.47-30.15ZM250.57-22.7Q248.97-22.7 248.14-21.55 247.32-20.4 247.32-17.8L247.32-17.8Q247.32-15.35 248.14-14.08 248.97-12.8 250.52-12.8L250.52-12.8Q252.12-12.8 252.89-13.95 253.67-15.1 253.67-17.9L253.67-17.9Q253.67-20.4 252.92-21.55 252.17-22.7 250.57-22.7L250.57-22.7ZM264.57-26.5L271.37-26.5 271.37 0 264.57 0 264.57-26.5ZM267.97-40Q269.72-40 270.82-38.85 271.92-37.7 271.92-35.95L271.92-35.95Q271.92-34.25 270.82-33.13 269.72-32 267.97-32L267.97-32Q266.17-32 265.07-33.13 263.97-34.25 263.97-35.95L263.97-35.95Q263.97-37.7 265.07-38.85 266.17-40 267.97-40L267.97-40ZM289.46-27.3Q292.31-27.3 293.96-25.25 295.61-23.2 295.61-19.75L295.61-19.75 295.61 0 288.81 0 288.81-19Q288.81-20.65 288.36-21.35 287.91-22.05 287.01-22.05L287.01-22.05Q285.21-22.05 283.31-18.45L283.31-18.45 283.31 0 276.51 0 276.51-26.5 282.46-26.5 282.96-23.15Q284.26-25.2 285.81-26.25 287.36-27.3 289.46-27.3L289.46-27.3ZM320.06-13.85Q320.06-13.3 319.91-11.2L319.91-11.2 306.36-11.2Q306.56-7.3 307.74-5.8 308.91-4.3 311.01-4.3L311.01-4.3Q312.46-4.3 313.71-4.83 314.96-5.35 316.41-6.45L316.41-6.45 319.21-2.7Q315.61 0.8 310.56 0.8L310.56 0.8Q305.21 0.8 302.36-2.85 299.51-6.5 299.51-13.05L299.51-13.05Q299.51-19.6 302.21-23.45 304.91-27.3 309.96-27.3L309.96-27.3Q314.71-27.3 317.39-23.88 320.06-20.45 320.06-13.85L320.06-13.85ZM313.46-15.4L313.46-15.8Q313.46-19.4 312.66-21.03 311.86-22.65 310.01-22.65L310.01-22.65Q308.31-22.65 307.44-21.05 306.56-19.45 306.36-15.4L306.36-15.4 313.46-15.4ZM343.36-13.85Q343.36-13.3 343.21-11.2L343.21-11.2 329.66-11.2Q329.86-7.3 331.03-5.8 332.21-4.3 334.31-4.3L334.31-4.3Q335.76-4.3 337.01-4.83 338.26-5.35 339.71-6.45L339.71-6.45 342.51-2.7Q338.91 0.8 333.86 0.8L333.86 0.8Q328.51 0.8 325.66-2.85 322.81-6.5 322.81-13.05L322.81-13.05Q322.81-19.6 325.51-23.45 328.21-27.3 333.26-27.3L333.26-27.3Q338.01-27.3 340.68-23.88 343.36-20.45 343.36-13.85L343.36-13.85ZM336.76-15.4L336.76-15.8Q336.76-19.4 335.96-21.03 335.16-22.65 333.31-22.65L333.31-22.65Q331.61-22.65 330.73-21.05 329.86-19.45 329.66-15.4L329.66-15.4 336.76-15.4ZM359.41-27.2Q360.56-27.2 361.46-26.85L361.46-26.85 360.36-20.3Q359.46-20.6 358.51-20.6L358.51-20.6Q356.61-20.6 355.56-19.03 354.51-17.45 353.96-14.35L353.96-14.35 353.96 0 347.16 0 347.16-26.5 353.11-26.5 353.61-22Q355.46-27.2 359.41-27.2L359.41-27.2Z" opacity="1" transform="matrix(1,0,0,1,0,0)" fill="#c64e33" class="slogan-text-1" data-fill-palette-color="secondary" id="text-1"></path></svg></g></svg></g></svg></g></svg></g><g transform="matrix(1,0,0,1,0,22.156738308611246)"><svg viewBox="0 0 51.417161824764925 84.77360744164308" height="84.77360744164308" width="51.417161824764925"><g><svg xmlns="http://www.w3.org/2000/svg" xmlns:xlink="http://www.w3.org/1999/xlink" version="1.1" x="0" y="0" viewBox="33.941554115680795 23.624999999999957 32.086445884319254 52.90225424859379" enable-background="new 0 0 100 100" xml:space="preserve" height="84.77360744164308" width="51.417161824764925" class="icon-icon-0" data-fill-palette-color="accent" id="icon-0"><path fill-rule="evenodd" clip-rule="evenodd" d="M52.9 35.3c0.3 0.1 0.4 0.1 0.6-0.1 0.1-0.1 0.2-0.1 0.3-0.2 0.1-0.1 0.2-0.1 0.3-0.2 0.1-0.1 0.2-0.1 0.3-0.2 0.1-0.1 0.2-0.1 0.3-0.2 0.1-0.1 0.5-0.4 0.7-0.5 0.1-0.1 0.3-0.3 0.4-0.3 0.1 0 0.2-0.2 0.3-0.2 0.1 0 0.2-0.2 0.3-0.2 0.1 0 0.2-0.2 0.3-0.2 0 0 0.2-0.1 0.2-0.1 0 0 0.1-0.2 0.1-0.2 0.1 0 0.2 0 0.2 0 0 0 0.1-0.2 0.1-0.2 0.1 0 0.2 0 0.2 0 0 0 0.1-0.2 0.1-0.2 0.2-0.1 0.3-0.1 0.5-0.2 0.1 0 0-0.1 0.1-0.1 0 0 0.2-0.1 0.2-0.1 0 0 0.1-0.2 0.1-0.2 0.1 0 0.2 0 0.2 0 0 0 0.1-0.2 0.1-0.2 0.1 0 0.2 0 0.2 0 0 0 0.1-0.2 0.1-0.2 0.1 0 0.2 0 0.2 0 0 0 0.1-0.2 0.1-0.2 0.1 0 0.2 0 0.2 0 0 0 0.1-0.2 0.1-0.2 0.2-0.1 0.4-0.1 0.7-0.3 0 0 0.1-0.1 0.1-0.1 0.1-0.1 0.3 0 0.4-0.1 0 0 0.1-0.2 0.1-0.2 0 0 0.2 0 0.2 0 0.1-0.1 0.1-0.3 0.2-0.3 0.5-0.3 1-0.6 1.4-0.7 1-0.1 1.6 0.5 2.4 1.1 0.1 0.2-0.1 0.4 0 0.6 0.1 0.2 0.1 0.7 0 1.1 0 0 0 0.2 0 0.2-0.1 0.1-0.2 0.3-0.3 0.5 0 0.1 0 0.2-0.1 0.3 0 0.1-0.2 0.1-0.2 0.1-0.2 0.3-0.4 0.5-0.6 0.8-0.2 0.3-0.3 0.6-0.5 0.8-0.3 0.3-0.8 0.4-1.2 0.7-0.1 0.1-0.2 0.3-0.4 0.4-0.1 0.1-0.5 0.3-0.7 0.4-0.1 0 0 0.1-0.1 0.1-0.1 0-0.2 0.2-0.3 0.2-0.1 0-0.3 0.2-0.5 0.3-0.1 0.1-0.1 0.2-0.2 0.2 0 0-0.2 0-0.2 0 0 0-0.1 0.2-0.1 0.2-0.1 0.1-0.2 0-0.3 0.1-0.1 0.1-0.1 0.2-0.2 0.3-0.1 0.1-0.2 0-0.3 0.1-0.2 0.1-0.3 0.4-0.5 0.5-0.1 0.1-0.1 0.1-0.2 0.1-0.1 0-0.2 0.2-0.3 0.3 0 0-0.2 0-0.2 0 0 0-0.1 0.2-0.1 0.2 0 0-0.2 0-0.2 0 0 0-0.1 0.2-0.1 0.2 0 0-0.2 0-0.2 0 0 0-0.1 0.2-0.1 0.2-0.1 0.1-0.2 0-0.3 0.1-0.2 0.1-0.3 0.4-0.5 0.5-0.3 0.3-0.6 0.6-0.9 0.9-0.1 0.2-0.4 0.2-0.4 0.5 0.1 0.4 0.2 0.5 0.5 0.7 0.1 0 0.2 0.1 0.2 0.1 0.1 0.1 0.3 0.3 0.4 0.4 0.1 0.1 0.2 0 0.3 0.1 0.1 0 0.1 0.2 0.1 0.2 0.1 0.1 0.2 0 0.3 0.1 0.1 0 0.1 0.2 0.2 0.2 0.1 0.1 0.3 0.2 0.4 0.3 0.1 0.1 0.2 0 0.3 0.1 0.1 0.1 0.2 0.4 0.4 0.6 0.4 0.1 0.8 0.2 1.1 0.5 0.1 0.1 0.3 0.3 0.4 0.4 0.1 0.1 0.1 0.2 0.2 0.2 0 0 0.2 0 0.2 0 0.1 0.1 0.3 0.2 0.5 0.4 0.1 0.1 0.1 0.2 0.2 0.2 0 0 0.2 0 0.2 0 0.1 0.1 0.3 0.3 0.5 0.4 0.1 0.1 0.1 0.2 0.2 0.2 0 0 0.2 0 0.2 0 0.1 0.1 0.3 0.3 0.5 0.4 0.1 0 0.2 0 0.3 0.1 0.1 0.1 0.3 0.4 0.5 0.6 0.1 0 0.2 0.2 0.2 0.2 0 0 0.2 0 0.2 0 0 0 0 0.1 0 0.1 0.1 0.1 0.2 0 0.3 0.1 0.1 0 0.1 0.2 0.2 0.2 0.1 0.1 0.2 0 0.3 0.1 0.2 0.1 0.3 0.4 0.5 0.6 0.1 0.1 0.3 0.2 0.4 0.3 0.1 0.1 0 0.3 0.1 0.4 0 0 0.2 0.1 0.2 0.1 0 0.1 0 0.2 0 0.2 0 0 0.2 0.1 0.2 0.1 0.1 0.2 0 0.3 0.2 0.4 0.1 0.4-0.1 0.7-0.1 1 0.1 0 0.1 0.1 0.1 0.2 0 0.1 0.2 0.3 0.1 0.6-0.1 0.4-0.8 1-1.2 1.2-0.1 0.3-0.3 0.5-0.5 0.7-0.2 0.1-0.5 0.1-0.7 0.2 0.1 0-0.6 0.3-0.7 0.1-0.1-0.1-0.1-0.1-0.3-0.1 0 0-0.2 0-0.2 0-0.1-0.1-0.9-0.1-1.2-0.2 0 0 0-0.1-0.1-0.1-0.1 0-0.2-0.2-0.4-0.2 0 0-0.3-0.1-0.3-0.1-0.1-0.1-0.2-0.2-0.3-0.3-0.1 0-0.1-0.1-0.2-0.1 0 0-0.3-0.1-0.3-0.1C60 53.3 60 53.1 59.8 53c0 0-0.2-0.1-0.2-0.1-0.1-0.1-0.2-0.2-0.3-0.3 0 0-0.2 0-0.2 0 0 0-0.1-0.2-0.1-0.2 0 0-0.2 0-0.2 0-0.1-0.1-0.1-0.3-0.3-0.3 0 0-0.2-0.1-0.2-0.1-0.1-0.1-0.2-0.2-0.3-0.3-0.1 0-0.1-0.1-0.2-0.1-0.1-0.1-0.3-0.3-0.4-0.3-0.1 0-0.1-0.2-0.2-0.2-0.1 0-0.2 0-0.2 0-0.1-0.1-0.2-0.2-0.3-0.3-0.1 0-0.1-0.1-0.2-0.1 0 0-0.1-0.1-0.1-0.1-0.4-0.2-0.8-0.1-1.1-0.3-0.1 0 0-0.1-0.1-0.1-0.2 0-0.2-0.3-0.4-0.4 0 0-0.2 0-0.2 0-0.1-0.1-0.1-0.2-0.3-0.3-0.1-0.1-0.2-0.1-0.3-0.2-0.1-0.1-0.2-0.1-0.3-0.2-0.1-0.1-0.5-0.4-0.8-0.4-0.2 0.1-0.2 0.2-0.3 0.4-0.1 0.2-0.1 0.4-0.1 0.6-0.1 0.6 0 1.2-0.1 2 0 0.3-0.1 0.7-0.1 1.2 0 0.3 0.1 0.3 0 0.6 0 0.1 0.2 0.9 0 1C52 54.8 52 55.5 52 55.9c0 0.4 0 0.8-0.1 1.2 0 0.4-0.2 0.8-0.2 1.1-0.1 1 0 1.9 0 2.9 0 0.1 0 0.1 0 0.2-0.1 0.6 0 1.8 0 2.7 0 0.3-0.1 0.5-0.1 0.7 0 0.3 0.1 0.6 0.1 0.9 0.1 0.9 0.1 2 0.1 3 0 0.8 0 1.7-0.1 2.4-0.1 0.3 0 0.8-0.1 1.3 0 0.3-0.1 0.6-0.2 0.8-0.2 0.7-0.3 1.7-0.3 2.7-0.1 0.1-0.2 0.1-0.3 0.2 0 0-0.1 0.2-0.1 0.2-0.1 0.1-0.3 0-0.4 0.1-0.2 0.1-0.5 0.3-1 0.2-0.2 0-0.7-0.4-1.1-0.5-0.1 0-0.1 0-0.2 0 0 0-0.3-0.1-0.3-0.1-0.1-0.2-0.3-0.2-0.5-0.4-0.1-0.1-0.3-0.3-0.4-0.4-0.4-0.3-0.6-0.5-0.7-0.8-0.2-0.4-0.1-0.8-0.1-1.3-0.1-1.1-0.1-2.1-0.1-3.4 0 0 0.1 0 0.1-0.1 0 0-0.1 0-0.1-0.1 0-0.1 0-0.2 0-0.3 0-1.3 0-2.6 0.1-4 0-0.2 0.1-0.4 0.1-0.6 0.1-1.9-0.2-4.2 0-6.2 0.1-0.9 0.1-1.7 0.1-2.6 0-1.9-0.2-3.8 0-5.4 0.1-0.9 0.5-1.7 0-2.5-0.4-0.2-0.7 0.3-1 0.3-0.1 0-0.2 0.2-0.3 0.2-0.1 0-0.1 0.1-0.2 0.1-0.1 0-0.1 0.2-0.2 0.2 0 0-0.2 0-0.2 0 0 0 0 0.1 0 0.1-0.1 0-0.2 0-0.3 0.1 0 0-0.1 0.2-0.1 0.2-0.1 0.1-0.2 0-0.3 0.1 0 0-0.1 0.2-0.1 0.2-0.1 0.1-0.2 0-0.3 0.1-0.1 0.1-0.2 0.4-0.4 0.5-0.1 0.1-0.2 0-0.3 0.1 0 0-0.1 0.2-0.1 0.2-0.1 0.1-0.2 0-0.3 0.1-0.1 0.1-0.3 0.4-0.5 0.5-0.1 0.1-0.3 0.2-0.4 0.3-0.1 0.1-0.1 0.2-0.2 0.2 0 0-0.2 0-0.2 0C40.3 51.8 40.3 52 40 52c-0.2 0-0.2 0.3-0.4 0.3-0.1 0-0.1 0.2-0.2 0.2 0 0-0.2 0-0.2 0 0 0 0 0.1 0 0.1-0.3 0.2-0.6 0.1-0.9 0.2 0 0 0 0.1-0.1 0.1-0.2 0-0.8 0.4-1.2 0.3 0 0 0-0.1-0.1-0.1-0.2 0-0.3 0-0.5-0.1-0.1 0-0.3 0-0.4-0.1-0.1-0.1-0.3-0.3-0.4-0.4-0.1-0.1-0.3-0.3-0.4-0.5C35 52 35 52 35 51.8c0-0.1-0.1-0.1-0.1-0.1-0.1-0.4-0.1-1.5 0.2-2 0-0.1 0.1 0 0.1-0.1 0-0.1 0.3-0.4 0.4-0.5 0 0 0.2 0 0.2 0 0.1-0.1 0.1-0.2 0.3-0.3 0.2-0.1 0.6-0.3 0.8-0.5 0.3-0.3 0.4-0.6 0.8-0.8 0.1 0 0.1-0.1 0.2-0.1 0.1-0.1 0.2-0.1 0.3-0.2 0.1-0.1 0.2-0.1 0.3-0.2 0.1-0.1 0.3-0.1 0.3-0.1 0.1-0.1 0.1-0.3 0.3-0.3 0.1 0 0.2-0.2 0.3-0.2 0.1 0 0.2-0.2 0.3-0.2 0.1 0 0.3-0.3 0.5-0.4 0.2-0.2 0.5-0.3 0.8-0.5 0.3-0.2 0.9-0.6 1.4-1 0.1 0 0-0.1 0.1-0.1 0.1 0 0.2-0.2 0.4-0.2 0.1 0 0.2-0.2 0.3-0.2 0.1 0 0.3-0.1 0.4-0.2 0.6-0.4 1.6-0.7 1.1-1.6 0-0.1-0.1 0-0.1-0.1 0-0.2-0.6-0.6-0.8-0.8-0.2-0.2-0.4-0.4-0.6-0.6-0.3-0.2-0.6-0.2-0.8-0.4-0.1-0.3-0.5-0.6-0.7-0.9-0.1-0.1-0.2-0.3-0.3-0.5-0.1-0.1-0.4-0.4-0.6-0.5-0.1-0.1-0.5-0.4-0.7-0.5-0.1 0-0.2 0-0.3-0.1 0 0-0.1-0.2-0.1-0.2-0.1-0.1-0.2-0.1-0.4-0.2-0.1-0.1-0.2-0.1-0.3-0.2-0.1-0.1-0.1-0.1-0.2-0.2-0.2-0.1-0.4-0.3-0.6-0.4 0 0-0.1-0.2-0.1-0.2-0.1-0.1-0.2-0.1-0.4-0.2 0 0-0.1-0.2-0.1-0.2-0.1-0.1-0.2-0.1-0.4-0.2 0 0-0.1-0.2-0.1-0.2-0.1-0.1-0.3-0.1-0.4-0.2-0.1-0.1-0.3-0.3-0.4-0.4-0.1-0.1 0-0.2-0.1-0.3 0 0-0.2 0-0.2-0.1-0.1-0.2-0.2-0.3-0.3-0.5-0.1-0.1-0.3-0.2-0.4-0.3-0.1-0.1 0-0.2-0.1-0.3-0.1-0.1-0.5-0.3-0.6-0.5-0.1-0.1 0-0.2-0.1-0.3 0 0-0.2-0.1-0.2-0.1-0.1-0.1-0.1-0.2-0.1-0.3 0 0-0.1-0.4-0.1-0.4-0.3-0.2-0.1-2.1 0-2.5 0-0.1 0.1 0 0.1-0.1 0-0.1 0.2-0.2 0.3-0.3 0.1-0.1 0.2-0.2 0.4-0.3 0.1 0 0.1-0.1 0.2-0.1 0.1 0 0.4-0.3 0.6-0.3 0.1 0 0.2-0.2 0.3-0.2 0.1 0 0.3-0.2 0.6-0.2 1-0.1 1.7 0.6 2.8 0.4 0.1 0.1 0.2 0.2 0.3 0.3 0.5 0.4 1 1 1.6 1.5 0.3 0.2 0.5 0.5 0.8 0.7 0.1 0.1 0.2 0.1 0.3 0.2 0 0 0.4 0.4 0.5 0.4 0 0 0.2 0.1 0.2 0.1 0 0 0.1 0.2 0.1 0.2 0 0 0.2 0 0.2 0 0.1 0.1 0.1 0.2 0.2 0.3 0 0 0.2 0 0.2 0 0.1 0.1 0.1 0.2 0.3 0.3 0.2 0.1 0.5 0.3 0.7 0.5 0.1 0.1 0.2 0.1 0.3 0.2 0 0 0.1 0.2 0.1 0.2 0 0 0.2 0 0.2 0 0.1 0.1 0.1 0.2 0.2 0.3 0 0 0.2 0 0.2 0 0.1 0.1 0.4 0.5 0.7 0.5 0.4-0.5 0.3-1 0.4-1.7 0.1-1.7-0.1-4.1 0.2-5.7 0-0.2 0.1-0.5 0.2-0.7 0-0.1 0-0.3 0.1-0.4 0-0.1 0.2-0.1 0.2-0.2 0.2-0.3 0.5-0.6 0.8-0.8 0.1-0.1 0.2-0.3 0.3-0.3 0.1-0.1 0.4-0.1 0.6-0.1 0.1 0 0.2-0.2 0.2-0.2 0.1 0 0.2 0 0.3 0 0.3-0.1 0.5-0.1 1.1 0 0.3 0 0.5 0 0.7 0.1 0 0 0 0.1 0.1 0.1 0.1 0 0.9 0.7 0.9 0.9 0 0 0.1 0.1 0.1 0.2 0.1 0.2 0.1 0.3 0.2 0.5 0 0.1 0.1 0.2 0.1 0.3 0.1 0.3 0.3 1.7 0.2 2.4-0.1 0.5-0.1 1.7-0.1 2.6C52.8 32.1 52.8 33.8 52.9 35.3z" fill="#2cb3b2" data-fill-palette-color="accent"></path></svg></g></svg></g></svg></g></svg></g><path d="M233.584 68.105L233.584 4.192 0 4.192 0 243.008 233.584 243.008 233.584 179.095 230.768 179.095 230.768 240.192 2.816 240.192 2.816 7.008 230.768 7.008 230.768 68.105Z" fill="#000000" stroke="transparent" data-fill-palette-color="tertiary"></path></svg></g><defs></defs></svg><rect width="395.52" height="247.2" fill="none" stroke="none" visibility="hidden"></rect></g></svg></g></svg>